<svg xmlns="http://www.w3.org/2000/svg" width="737" height="251" fill="none" viewBox="0 0 737 251">
    <mask id="wdafodtnaa" width="713" height="188" x="25" y="0" maskUnits="userSpaceOnUse">
        <path fill="#fff" d="M738 0H926V713H738z" transform="rotate(90 738 0)"/>
    </mask>
    <g mask="url(#wdafodtnaa)">
        <path fill="#2BAB65" fill-rule="evenodd" d="M584.23 55.54c-4.268 20.393 8.547 40.438 28.624 44.772 20.077 4.333 39.813-8.685 44.082-29.078 4.269-20.394-8.547-40.438-28.624-44.772-20.077-4.334-39.813 8.685-44.082 29.078z" clip-rule="evenodd"/>
        <path fill="#812DA1" fill-rule="evenodd" d="M602.18 59.413c-2.161 10.324 4.326 20.472 14.49 22.666 10.164 2.193 20.155-4.397 22.316-14.721 2.161-10.324-4.327-20.472-14.49-22.665-10.164-2.194-20.155 4.397-22.316 14.72z" clip-rule="evenodd"/>
        <mask id="gmus6fk64b" width="1256" height="745" x="-123" y="-452" maskUnits="userSpaceOnUse">
            <path fill="#fff" fill-rule="evenodd" d="M1028.51 292.178L-122.994 43.632-19.385-451.35 1132.12-202.804l-103.61 494.982z" clip-rule="evenodd"/>
        </mask>
        <g fill-rule="evenodd" clip-rule="evenodd" mask="url(#gmus6fk64b)">
            <path fill="#9B1031" d="M581.523 36.818l-82.606-17.83 17.563-83.906 82.606 17.83-17.563 83.906z"/>
            <path fill="#00A099" d="M538.375-30.67c-9.038 5.962-11.607 18.236-5.739 27.416 5.869 9.18 17.954 11.788 26.992 5.826 9.038-5.962 11.607-18.237 5.738-27.416-5.868-9.18-17.953-11.788-26.991-5.826z"/>
            <path fill="#FAB300" d="M442.024 46.51l-22.055 14.548 14.321 22.4 22.054-14.549-14.32-22.4z"/>
            <path fill="#9B1031" d="M430.741 63.402c-.598 3.934 2.058 7.615 5.932 8.222 3.873.607 7.498-2.091 8.096-6.026.597-3.935-2.059-7.616-5.932-8.222-3.874-.607-7.499 2.091-8.096 6.026z"/>
            <path fill="#00A099" d="M72.11-108.504l45.296-29.879 18.347 28.697 28.255-18.638L193.42-82.32l-28.255 18.638 18.347 28.697-45.296 29.878-18.347-28.697-28.255 18.639L62.202-61.17l28.255-18.638-18.346-28.697z"/>
            <path fill="#93BF1C" d="M326.516-24.076l55.772 12.038 31.051 48.569-11.858 56.649-47.82 31.544-55.772-12.038-31.051-48.569 11.857-56.649 47.821-31.544z"/>
            <path fill="#9B1031" d="M311.114 44.069c-3.402 16.253 6.812 32.23 22.814 35.683 16.001 3.454 31.732-6.922 35.134-23.176 3.402-16.254-6.812-32.23-22.814-35.683-16.002-3.454-31.732 6.922-35.134 23.176z"/>
            <path fill="#FAB300" d="M495.83 100.07l-13.768-12.101 11.916-13.985-1.309-18.445 18.159-1.331 11.915-13.986 13.768 12.102 18.16-1.332 1.309 18.445 13.767 12.1-11.915 13.985 1.309 18.445-18.16 1.332-11.915 13.985-13.767-12.101-18.16 1.332-1.309-18.445z"/>
            <path fill="#812DA1" d="M512.278 87.408c.779 7.49 7.388 12.92 14.763 12.128 7.374-.792 12.721-7.506 11.942-14.996-.779-7.49-7.388-12.92-14.762-12.128-7.375.792-12.722 7.506-11.943 14.996z"/>
            <path fill="#003131" d="M86.685 24.017c6.943 7.205 19.993 9.885 29.148 5.987 9.155-3.898 10.947-12.898 4.004-20.103-6.943-7.205-19.993-9.885-29.148-5.987-9.155 3.899-10.948 12.899-4.004 20.103z"/>
            <path fill="#812DA1" d="M243.993 15.219c-4.81 2.574-6.656 8.622-4.122 13.508 2.534 4.886 8.488 6.76 13.299 4.186 4.811-2.575 6.656-8.623 4.122-13.509-2.534-4.886-8.488-6.76-13.299-4.185z"/>
            <path fill="#00A099" d="M245.694-44.778c-11.499 6.1-15.953 20.515-9.947 32.194 6.005 11.68 20.196 16.202 31.696 10.1 17.214-9.132 20.41-37.746 20.41-37.746s-23.87-14.252-42.159-4.548zM432.314 101.811c-13.012 7.356-17.691 24.032-10.45 37.247 7.24 13.216 23.658 17.966 36.67 10.611 19.478-11.012 22.289-43.941 22.289-43.941s-27.814-15.616-48.509-3.917z"/>
            <path fill="#FCE908" d="M652.764 111.431c-.198 1.631.943 3.115 2.548 3.316 1.605.201 3.067-.959 3.265-2.589.198-1.631-.943-3.115-2.549-3.316-1.605-.201-3.066.958-3.264 2.589z"/>
            <path fill="#E85908" d="M707.917 106.471c-.198 1.631.943 3.115 2.549 3.316 1.605.2 3.067-.959 3.265-2.589.197-1.631-.943-3.115-2.549-3.316-1.605-.201-3.067.958-3.265 2.589z"/>
            <path fill="#FAB300" d="M544.472 169.382c-.198 1.631.943 3.115 2.549 3.316 1.605.201 3.067-.958 3.265-2.589.197-1.631-.943-3.115-2.549-3.316-1.605-.201-3.067.958-3.265 2.589zM150.007 5.596c-.198 1.63.943 3.115 2.549 3.316 1.605.2 3.067-.959 3.265-2.589.197-1.63-.944-3.115-2.549-3.316-1.605-.2-3.067.958-3.265 2.589zM311.303 134.596c-.198 1.631.943 3.115 2.549 3.316 1.605.201 3.067-.958 3.265-2.589.197-1.631-.943-3.115-2.549-3.316-1.605-.2-3.067.958-3.265 2.589zM559.483 130.441c-.297 2.444 1.413 4.669 3.819 4.97 2.406.3 4.597-1.437 4.893-3.88.297-2.444-1.413-4.669-3.819-4.97-2.406-.301-4.596 1.437-4.893 3.88zM474.435 166.319c-.297 2.444 1.414 4.669 3.819 4.969 2.406.302 4.597-1.436 4.893-3.879.297-2.444-1.413-4.669-3.819-4.97-2.406-.3-4.596 1.436-4.893 3.88z"/>
            <path fill="#812DA1" d="M417.949 88.818c-.322 2.65 1.533 5.064 4.143 5.39 2.609.327 4.986-1.558 5.307-4.208.322-2.651-1.533-5.065-4.142-5.39-2.61-.327-4.986 1.557-5.308 4.208zM523.394 144.489c-.321 2.65 1.534 5.064 4.143 5.39 2.61.327 4.986-1.558 5.308-4.208.322-2.651-1.533-5.065-4.143-5.391-2.609-.326-4.986 1.558-5.308 4.209zM133.681 60.371c-.322 2.651 1.533 5.065 4.143 5.391 2.609.326 4.986-1.558 5.308-4.209.321-2.65-1.534-5.064-4.143-5.39-2.61-.326-4.986 1.558-5.308 4.209z"/>
            <path fill="#2BAB65" d="M179.666 43.188c-.455 3.753 2.172 7.17 5.866 7.632 3.695.462 7.06-2.206 7.515-5.959.456-3.753-2.171-7.17-5.866-7.632-3.695-.462-7.059 2.206-7.515 5.959z"/>
            <path fill="#FAB300" d="M71.807 56.44c1.049-5.741-2.683-11.26-8.336-12.324-5.653-1.065-11.086 2.727-12.134 8.468-1.05 5.742 2.682 11.26 8.335 12.324 5.653 1.066 11.086-2.726 12.135-8.468z"/>
            <path fill="#00A099" d="M671.95 89.45c-.552 4.555 2.634 8.7 7.117 9.261 4.483.56 8.566-2.676 9.118-7.23.552-4.554-2.634-8.7-7.117-9.26-4.483-.56-8.565 2.676-9.118 7.23z"/>
            <path fill="#9B1031" d="M250.733 100.643c-.628 5.174 2.993 9.886 8.088 10.524 5.095.636 9.734-3.042 10.362-8.217.628-5.175-2.993-9.887-8.088-10.524-5.095-.637-9.734 3.042-10.362 8.217z"/>
            <path fill="#FAB300" d="M586.991 150.328c.668-.73.627-1.871-.091-2.549-.718-.678-1.841-.636-2.509.094-.668.729-.627 1.87.091 2.548.719.678 1.842.636 2.509-.093z"/>
            <path fill="#003131" d="M652.392 23.938c1.687.364 3.424.55 5.19.547 6.555-.01 12.714-2.613 17.342-7.329l-7.647-7.742c-5.349 5.45-14.067 5.465-19.434.031-5.366-5.434-5.38-14.29-.029-19.74l-7.647-7.743c-9.553 9.734-9.531 25.547.051 35.25 3.393 3.435 7.598 5.739 12.174 6.726z"/>
            <path fill="#00A099" d="M666.343-20.66c-6.115 2.497-9.079 9.556-6.621 15.766 2.458 6.21 9.408 9.221 15.522 6.724 9.153-3.738 12.185-18.039 12.185-18.039s-11.361-8.423-21.086-4.451z"/>
            <path fill="#E85908" d="M451.77-6.861l-4.429-5.763 5.674-4.5.881-7.256 7.144.893 5.675-4.5 4.429 5.764 7.145.893-.881 7.257 4.429 5.763-5.674 4.5-.881 7.256-7.143-.893-5.675 4.5-4.429-5.764-7.145-.893.88-7.257zM190.528 5.877c-1.663-2.29-1.183-5.514 1.07-7.203 1.083-.811 1.804-2.026 2.004-3.376.418-2.813 3.003-4.75 5.772-4.325 1.33.204 2.685-.137 3.767-.948h.001c2.253-1.69 5.428-1.203 7.09 1.086h.001c.798 1.1 1.993 1.832 3.323 2.036 2.769.424 4.675 3.048 4.257 5.861-.201 1.35.135 2.727.934 3.827 1.662 2.289 1.183 5.514-1.071 7.202h-.001c-1.082.811-1.802 2.026-2.003 3.377-.418 2.813-3.002 4.749-5.771 4.324-1.33-.203-2.686.138-3.768.948-2.254 1.69-5.429 1.203-7.091-1.086-.799-1.1-1.994-1.832-3.324-2.036-2.769-.424-4.675-3.048-4.257-5.861.201-1.351-.135-2.727-.933-3.826zM403.004-8.912v-.001c-1.848-2.545-1.315-6.129 1.191-8.006 1.202-.901 2.004-2.252 2.227-3.753.465-3.127 3.337-5.279 6.415-4.807h.001c1.478.227 2.984-.152 4.187-1.054 2.505-1.877 6.034-1.336 7.882 1.208.888 1.222 2.216 2.035 3.695 2.262 3.078.472 5.197 3.39 4.732 6.516-.223 1.501.15 3.031 1.037 4.253 1.849 2.545 1.316 6.13-1.19 8.006-1.204.902-2.004 2.252-2.228 3.754-.465 3.126-3.337 5.278-6.415 4.806-1.478-.226-2.984.153-4.187 1.054h-.001c-2.505 1.878-6.034 1.337-7.882-1.207-.887-1.222-2.216-2.036-3.695-2.263-3.078-.471-5.196-3.389-4.732-6.515.224-1.502-.149-3.032-1.037-4.253z"/>
            <path fill="#93BF1C" d="M572.87 112.128c-1.268-1.747-.902-4.207.817-5.495.826-.619 1.377-1.546 1.529-2.577.319-2.146 2.291-3.623 4.404-3.299 1.015.155 2.049-.105 2.875-.724 1.719-1.288 4.142-.917 5.41.829v.001c.609.838 1.521 1.397 2.536 1.552 2.113.324 3.567 2.326 3.248 4.472v.001c-.153 1.03.103 2.08.712 2.919 1.269 1.747.903 4.207-.817 5.496-.826.619-1.376 1.545-1.529 2.576-.319 2.146-2.291 3.623-4.404 3.299-1.014-.155-2.048.105-2.874.724-1.719 1.288-4.142.917-5.411-.83-.609-.838-1.521-1.397-2.535-1.552-2.113-.324-3.567-2.327-3.248-4.472v-.001c.153-1.03-.103-2.08-.713-2.919z"/>
            <path fill="#E85908" d="M611.25 5.382l6.323.425 4.269-4.756-.998-6.355-5.515-3.17-5.878 2.404-1.815 6.166 3.614 5.286zM618.084 134.306l6.322.425 4.27-4.756-.999-6.355-5.514-3.169-5.878 2.404-1.815 6.166 3.614 5.285z"/>
            <path fill="#FAB300" d="M387.394 141.554l8.691.584 5.87-6.538-1.373-8.736-7.581-4.357-8.08 3.304-2.496 8.477 4.969 7.266z"/>
            <path fill="#003131" d="M432.503 17.818c.808-4.613 5.144-7.687 9.685-6.866 4.541.82 7.567 5.224 6.758 9.836-.162.925-.471 1.784-.89 2.566 2.915 4.575 8.343 7.186 13.95 6.174 3.614-.653 6.762-2.696 8.863-5.753 2.101-3.058 2.905-6.763 2.262-10.434l10.632-1.92c1.146 6.555-.288 13.171-4.04 18.63-2.766 4.024-6.548 7.06-10.929 8.848 1.58 2.099 2.691 4.606 3.127 7.407.947 6.081-1.517 11.86-5.899 15.49-5.272-2.078-9.37-6.802-10.317-12.883-.458-2.94-.113-5.806.855-8.396-.684-.087-1.363-.199-2.032-.343-7.145-1.542-13.331-6.289-16.72-12.93-3.71-1.4-6.023-5.328-5.305-9.426z"/>
            <path fill="#FAB300" d="M680.685 8.276l30.982-20.438 12.549 19.63 19.326-12.75 20.118 31.468-19.327 12.748 12.55 19.629L725.901 79l-12.55-19.629-19.326 12.748-20.117-31.466 19.326-12.749-12.549-19.628z"/>
            <path fill="#9B1031" d="M714.207 32.642c3.69-1.317 5.631-5.423 4.335-9.172-1.296-3.748-5.338-5.72-9.028-4.403-3.691 1.317-5.632 5.423-4.336 9.172 1.295 3.748 5.338 5.72 9.029 4.403zM719.488 47.92c3.691-1.316 5.632-5.422 4.336-9.17-1.296-3.749-5.338-5.72-9.029-4.403-3.69 1.316-5.631 5.422-4.335 9.17 1.295 3.75 5.338 5.72 9.028 4.404zM729.721 35.688c3.691-1.316 5.632-5.422 4.336-9.171-1.295-3.748-5.338-5.72-9.029-4.402-3.69 1.316-5.632 5.422-4.335 9.17 1.295 3.749 5.338 5.72 9.028 4.403z"/>
        </g>
    </g>
</svg>
