<svg xmlns="http://www.w3.org/2000/svg" width="131" height="281" fill="none" viewBox="0 0 131 281">
    <path fill="#FAB300" fill-rule="evenodd" d="M39.049 97.833c-.147-1.04.576-2.002 1.615-2.149 1.038-.146 2 .58 2.146 1.62.147 1.04-.576 2.002-1.615 2.148-1.038.147-2-.578-2.146-1.619z" clip-rule="evenodd"/>
    <path fill="#93BF1C" fill-rule="evenodd" d="M2.026 159.454c-.803 1.131-.537 2.701.592 3.505.543.387.91.973 1.021 1.631.231 1.369 1.527 2.291 2.893 2.061.656-.111 1.33.044 1.872.431 1.13.804 2.696.54 3.499-.591.385-.543.97-.91 1.627-1.021 1.366-.23 2.286-1.527 2.055-2.896-.111-.657.043-1.332.428-1.875.803-1.131.538-2.7-.592-3.505-.542-.386-.91-.973-1.02-1.63-.232-1.369-1.527-2.292-2.893-2.061-.657.111-1.33-.044-1.873-.431-1.13-.805-2.696-.54-3.498.591-.386.543-.971.91-1.627 1.021-1.366.23-2.287 1.527-2.055 2.896.11.657-.044 1.331-.429 1.874z" clip-rule="evenodd"/>
    <path fill="#FAB300" fill-rule="evenodd" d="M82.27 241.088l-8.082 7.317 7.282 8.204-.566 10.973 10.863.628 7.282 8.204 8.083-7.317 10.863.627.566-10.974 8.082-7.316-7.282-8.204.566-10.974-10.864-.627-7.282-8.204-8.082 7.317-10.863-.628-.566 10.974z" clip-rule="evenodd"/>
    <path fill="#812DA1" fill-rule="evenodd" d="M92.305 249.484c.398-4.515 4.38-7.853 8.896-7.455 4.515.397 7.853 4.38 7.455 8.895-.397 4.515-4.38 7.853-8.895 7.456-4.515-.398-7.853-4.381-7.456-8.896zM91.248.4c3.428 4.403 4.548 10.422 2.326 15.975-2.222 5.553-7.181 9.127-12.695 9.934-3.428-4.403-4.548-10.422-2.326-15.976C80.776 4.78 85.736 1.207 91.249.4z" clip-rule="evenodd"/>
    <path fill="#93BF1C" fill-rule="evenodd" d="M98.42 110.783c1.273 2.016 3.937 2.618 5.949 1.344 1.011-.641 1.936-.778 2.84-.792.103.001.204.014.306.021-.108.24-.221.481-.344.719-.435.826-.94 1.641-1.656 2.418-1.158 1.263-1.547 3.139-.835 4.822.971 2.299 3.619 3.375 5.913 2.403 2.294-.971 3.366-3.621 2.394-5.92-.412-.975-.614-1.912-.745-2.838-.006-.043-.009-.086-.015-.13.04.02.079.037.118.057.825.437 1.639.944 2.415 1.661 1.262 1.162 3.135 1.553 4.815.841 2.294-.971 3.366-3.622 2.395-5.921-.972-2.298-3.619-3.374-5.913-2.403-.973.412-1.908.613-2.832.744-.265.035-.529.061-.792.082.028-.099.049-.198.084-.296.318-.847.759-1.672 1.703-2.41 1.716-1.35 2.183-3.823.99-5.712-1.273-2.016-3.937-2.618-5.949-1.344-2.011 1.274-2.61 3.941-1.337 5.957.64 1.014.778 1.94.793 2.845-.001.273-.029.54-.068.806-.263-.052-.525-.116-.781-.208-.846-.319-1.67-.762-2.407-1.708-1.349-1.72-3.818-2.189-5.703-.996-2.012 1.274-2.61 3.941-1.338 5.958z" clip-rule="evenodd"/>
</svg>
